<svg width="400" height="400" viewBox="0 0 400 400" fill="none" xmlns="http://www.w3.org/2000/svg">
  <!-- Background with gradient -->
  <rect width="400" height="400" fill="url(#professionalGradient)"/>
  
  <!-- Professional avatar with initials -->
  <circle cx="200" cy="150" r="60" fill="#FFFFFF" opacity="0.95"/>
  <circle cx="200" cy="150" r="55" fill="#1E40AF"/>
  
  <!-- Initials -->
  <text x="200" y="165" text-anchor="middle" fill="#FFFFFF" font-family="Arial, sans-serif" font-size="48" font-weight="bold">AR</text>
  
  <!-- Professional body shape -->
  <path d="M120 260 Q120 240 150 235 L250 235 Q280 240 280 260 L280 370 Q280 390 250 390 L150 390 Q120 390 120 370 Z" fill="#FFFFFF" opacity="0.95"/>
  <path d="M125 265 Q125 245 150 245 L250 245 Q275 245 275 265 L275 365 Q275 385 250 385 L150 385 Q125 385 125 365 Z" fill="#1E40AF"/>
  
  <!-- Gradient definitions -->
  <defs>
    <linearGradient id="professionalGradient" x1="0%" y1="0%" x2="100%" y2="100%">
      <stop offset="0%" stop-color="#1E3A8A"/>
      <stop offset="50%" stop-color="#3B82F6"/>
      <stop offset="100%" stop-color="#60A5FA"/>
    </linearGradient>
  </defs>
</svg>
